FILE "Mad Dog McCree (1993)(American Laser Games)(US).img" BINARY
  TRACK 01 MODE1/2352
    INDEX 01 00:00:00
  TRACK 02 AUDIO
    PREGAP 00:02:00
    INDEX 01 22:55:54
  TRACK 03 AUDIO
    INDEX 01 23:08:26
  TRACK 04 AUDIO
    INDEX 00 23:18:71
    INDEX 01 23:20:73
  TRACK 05 AUDIO
    INDEX 00 23:31:43
    INDEX 01 23:33:45
  TRACK 06 AUDIO
    INDEX 00 23:44:17
    INDEX 01 23:46:17
  TRACK 07 AUDIO
    INDEX 00 23:56:64
    INDEX 01 23:58:64
